<?xml version="1.0" encoding="utf-8"?>
<!-- Generator: Adobe Illustrator 24.1.0, SVG Export Plug-In . SVG Version: 6.00 Build 0)  -->
<svg version="1.1" id="Layer_1" xmlns="http://www.w3.org/2000/svg" xmlns:xlink="http://www.w3.org/1999/xlink" x="0px" y="0px"
	 viewBox="0 0 777.8 756.5" style="enable-background:new 0 0 777.8 756.5;" xml:space="preserve">
<style type="text/css">
	.st0{stroke:#FFFFFF;}
	.st1{fill:#191919;stroke:#FFFFFF;}
</style>
<path class="st0" d="M75.8,753.1L75.8,753.1c20.5,0,41-0.3,61.5,0.2c6.3,0.2,9.3-1.9,12-7.3c25.3-49.2,52.5-97.2,81.3-144.4
	C288.8,506,353.5,415.2,426,330c55.1-65,114.7-125.9,178.3-182.5c53.4-47.5,110-91.4,169.3-131.4c2.1-1.4,5.2-2.5,3-6.1
	s-0.4-9.4-7.9-9.2c-26.7,0.4-53.3,0.1-80,0.3c-3.3,0-6.5,0.8-9.3,2.5c-22.9,14-45.9,27.8-68.3,42.5c-105,68.8-200,149.5-287,239.9
	c-67.6,70.5-129.7,146-185.9,226C88.4,582.7,43.1,656.7,2.8,733.3c-0.9,1.7-1.2,3.6-0.9,5.5c0.8,3.7,2.4,7.3,3.4,10.9
	c0.7,2.8,2.3,3.4,5,3.4C32.2,753,54,753.1,75.8,753.1z M433.9,341.8c-0.5,0.3-1,0.7-1.4,1.1c-24.1,30.4-48.2,60.8-72.3,91.2
	c-2.3,2.9-1.2,4.5,0.9,6.7c25.1,26.7,50.2,53.5,75.2,80.3c72.5,77.4,144.9,154.7,217.4,232c1.7,1.7,3.9,2.7,6.3,2.9
	c35,0.2,70,0,105,0.2c3.7,0,4.8-1.4,5.4-4.7c1.9-10.5,3.9-21,6.5-31.3c1.2-4.7,0-7.6-3.1-11c-32.4-34.7-64.7-69.5-96.9-104.4
	c-39.1-42.3-78.2-84.7-117.3-127c-30.7-33.3-61.5-66.5-92.3-99.8C456.2,365.8,445.1,353.8,433.9,341.8z M348,242.3
	c-0.5-0.6-0.9-1.1-1.3-1.6L217.6,103.4C186.5,70.3,155.3,37.1,124.1,4c-1.9-1.9-4.4-3.1-7.1-3.3C83.3,0.5,49.6,0.6,15.9,0.5
	c-3.1,0-4.7,0.8-5.6,4.1c-3,12-6.2,23.8-9.5,35.7c-0.9,3.1-0.3,5.2,1.9,7.6c26.3,28.1,52.6,56.2,78.7,84.4
	c55,59.2,110.1,118.3,165.1,177.5c6.2,6.7,12.5,13.3,18.6,19.7L348,242.3z"/>
<path class="st1" d="M75.8,753.1c-21.8,0-43.7-0.1-65.5,0.1c-2.8,0-4.3-0.6-5-3.4c-1-3.7-2.6-7.2-3.4-10.9c-0.3-1.9,0-3.8,0.9-5.5
	c40.3-76.6,85.6-150.6,135.4-221.4C194.4,432,256.5,356.5,324.1,286c87-90.4,182-171.1,287-239.9c22.4-14.7,45.4-28.5,68.3-42.5
	c2.8-1.6,6.1-2.5,9.3-2.5c26.7-0.2,53.3,0.1,80-0.3c7.5-0.1,5.8,5.8,7.9,9.2s-0.9,4.7-3,6.1c-59.3,40-115.8,83.8-169.3,131.3
	C540.7,204.1,481.1,265,426,330c-72.5,85.2-137.2,176-195.4,271.5c-28.8,47.2-56,95.3-81.3,144.4c-2.8,5.4-5.7,7.5-12,7.3
	C116.9,752.8,96.4,753.1,75.8,753.1L75.8,753.1z"/>
<path class="st1" d="M433.9,341.8c11.2,12.1,22.3,24,33.4,36c30.8,33.3,61.5,66.5,92.3,99.8c39.1,42.3,78.2,84.7,117.3,127
	c32.2,34.9,64.5,69.7,96.9,104.4c3.2,3.4,4.3,6.3,3.1,11c-2.6,10.3-4.5,20.8-6.5,31.3c-0.6,3.3-1.7,4.8-5.4,4.7
	c-35-0.1-70,0-105-0.2c-2.4-0.2-4.6-1.2-6.3-2.9c-72.5-77.3-145-154.6-217.4-231.9c-25.1-26.8-50.1-53.6-75.2-80.3
	c-2.1-2.2-3.1-3.8-0.9-6.7c24.2-30.4,48.3-60.8,72.3-91.2C432.9,342.4,433.4,342.1,433.9,341.8z"/>
<path class="st1" d="M348,242.3l-82.8,87.1c-6.1-6.5-12.4-13-18.6-19.7c-55-59.2-110-118.3-165.1-177.5
	C55.4,104.1,29.1,75.9,2.8,47.8c-2.2-2.4-2.8-4.5-1.9-7.6c3.3-11.9,6.5-23.7,9.5-35.7c0.8-3.3,2.4-4.1,5.6-4.1
	c33.7,0.1,67.3,0,101,0.2c2.7,0.2,5.2,1.4,7.1,3.3c31.3,33.1,62.5,66.2,93.5,99.4l129.1,137.3C347.2,241.3,347.6,241.8,348,242.3z"
	/>
</svg>
