<?xml version="1.0" encoding="utf-8"?>
<!-- Generator: Adobe Illustrator 24.1.0, SVG Export Plug-In . SVG Version: 6.00 Build 0)  -->
<svg version="1.1" id="Layer_1" xmlns="http://www.w3.org/2000/svg" xmlns:xlink="http://www.w3.org/1999/xlink" x="0px" y="0px"
	 viewBox="0 0 23 20" style="enable-background:new 0 0 23 20;" xml:space="preserve">
<style type="text/css">
	.st0{fill:#191919;}
</style>
<path class="st0" d="M0.8,3.7h21.4c0.5,0,0.8-0.4,0.8-0.8v-2C23,0.4,22.6,0,22.2,0H0.8C0.4,0,0,0.4,0,0.8v2C0,3.3,0.4,3.7,0.8,3.7z
	 M0.8,11.8h21.4c0.5,0,0.8-0.4,0.8-0.8V9c0-0.5-0.4-0.8-0.8-0.8H0.8C0.4,8.2,0,8.5,0,9v2C0,11.5,0.4,11.8,0.8,11.8z M0.8,20h21.4
	c0.5,0,0.8-0.4,0.8-0.8v-2c0-0.5-0.4-0.8-0.8-0.8H0.8c-0.5,0-0.8,0.4-0.8,0.8v2C0,19.6,0.4,20,0.8,20z"/>
</svg>
